<svg xmlns="http://www.w3.org/2000/svg" viewBox="0 0 289.9 412.02"><defs><style>.cls-1{fill:#010101;}.cls-2{fill:#fff;}</style></defs><g id="black"><path id="black-ceili-dancers" class="cls-1" d="M96,40.71s-16.72-27.87,4.46-37.9c17.54-8.31,30.49,4,34.42,8.51a6.19,6.19,0,0,1,1.49,3.31c.7,5.47,2.53,21.72-.24,23.7,0,0,2.23,5.72-3.35,6.84,0,0-3.44,4.12-3.29,7a3.36,3.36,0,0,1-1.76,3.24c-3.22,1.65-8,4.63-7.21,7.61,1.12,4.46-1.11,6.69,4.46,6.69S152.8,83.06,152.8,93.1c0,0,13.37-3.35,20.06,3.34,0,0,30.1,2.23,22.29-7.8,0,0,.36-5.41,1.29-6,0,0-20.24-4-9.09-27.39s21.18-20.07,21.18-20.07,6.69-8.91,15.6-3.34c0,0,5.58-1.11,4.46,2.23,0,0,8.92,2.23,5.58,6.69,0,0,12.26,4.46,5.57,14.49,0,0,6.69-2.23,4.46,12.26,0,0,4.46,1.11-2.23,13.37,0,0,3.34,7.81-3.35,8.92,0,0,2.23,11.15,0,14.49,0,0,16.72-2.23,18.95,12.26,0,0,14.49,6.69,17.84,20.07s4.46,12.26-1.12,21.18-5.57,11.14-5.57,11.14-2.23,4.46-10,6.69c0,0-3.35,2.23-2.23,5.57s-7.8,7.81-7.8,7.81l41.24,52.38s-8.92,31.21-61.31,29c0,0,0,8.91-3.34,10,0,0,3.34,5.57,15.6,3.34s10,8.92,10,8.92,0,12.26,10,15.6c0,0,5.57,5.58,1.11,8.92S238.62,306,238.62,306s-18.94-15.6-20.06,0-1.11,24.53-5.57,26.76l-4.46,37.89a37.5,37.5,0,0,1,8.92,16.72l1.11,18.95s2.23,8.92-7.8,4.46c-8.21-3.65-3.35-5.57-6.69-10l-6.69-15.61-5-4.78a4.88,4.88,0,0,1-.95-5.75l1.46-2.84s5.58-15.61,0-36.78-3.13-36.68-3.13-36.68-19.16-4.57-20.27-19.06-1.12-25.63-1.12-25.63l-17.83-8.92s-4.46-6.69-6.69,0S135,261.41,135,270.33s12.85,7.06,12.85,7.06,9.45-2.61,8.33,6.31,12.26,25.64,12.26,25.64,6.69,12.26-5.57,7.8S139.42,296,139.42,296s-7.8-5.57-7.8,5.58-13.38,60.19-11.15,66.87,6.69,23.41,6.69,31.22c0,0,2.23,8.91-3.34,7.8s-8.92,0-11.15-10-4.46-17.84-11.15-20.07c-4.49-1.49-4-6.51-3.12-9.64a6.39,6.39,0,0,1,2.58-3.63c2.73-1.86,7.16-6,.54-10.14-8.91-5.57,2.23-56.84,2.23-56.84s7.8-7.81-5.57-8.92c0,0-31.21,1.11-37.9-1.11s-20.06-1.12-15.6-25.64S69.2,186.73,69.2,186.73s8.91-13.38,1.11-47.93S53.59,98.67,53.59,98.67s-19-14.49-37.9-6.69c0,0-24.52,1.12-12.26-21.18,0,0,45.7-29,50.16-29S64.74,28.45,64.74,28.45s5.57-8.92,10,1.11,14.49,19,14.49,19S98.18,54.08,96,40.71Z"/></g><g id="white"><path id="white-ceili-dancers" class="cls-2" d="M77,61.89c-2.2-2.23-22.32,0-22.32,0,0-5.58,17.83-12.27,17.83-12.27C89.26,55.2,79.23,64.11,77,61.89ZM145,127.09s-10,19.51-6.64,27.31,15.67,24.14,9.5,28.79c0,0,19.48-17.64,26.16-14.3,0,0,4.46-21.18-5.57-27.86S154.94,119.85,145,127.09Zm82.53-28.42c3.34-1.12,0-11.15-1.29-14.49s-7.63,0-7.63,0C213,96.44,224.13,99.78,227.48,98.67Zm6.69,75.8c-1.12-3.35,4.45-3.35,6.68-2.23s8.92,0,7.81-6.69,1.11-3.35,6.71-12.85-2.25-9.44-2.25-9.44c-2.23-8.92-11.15-6.69-14.5-2.23s-9.7,27.24-9.7,27.24C227,176.57,234.17,174.47,234.17,174.47Zm-129.3,52.38S81.46,253.61,84.8,258.06,96,257,99.29,264.75c0,0,13.38,1.12,6.69-12.26C106,252.49,103.75,231.31,104.87,226.85Z"/></g></svg>