<svg xmlns="http://www.w3.org/2000/svg" viewBox="0 0 395.29 275.02"><defs><style>.cls-1{fill:#010101;}.cls-2{fill:#fff;}</style></defs><g id="black"><path id="black-claddagh" class="cls-1" d="M210.73,2.91c19.64,11.45,4.44,35.89,4.44,35.89V49.28c-.47-6,24.85-17.14,24.85-17.14s14.89-4.69,31.26,13.31-16.37,58.91-16.37,58.91l4.21,13.09H225.46l-3.94-8.18H178.68l-3.94,8.18H141.07l4.21-13.09s-32.72-40.91-16.36-58.91,31.25-13.31,31.25-13.31S185.5,43.28,185,49.28V38.8S173.39,19,189.46,2.91C196-3.64,210.73,2.91,210.73,2.91ZM89.65,181.27s-11.46-18,6.54-27.82,32.73-13.09,32.73-13.09,22.91-6.25,0-15.4-60.54,13.76-60.54,13.76V242.54s32.72,30.36,65.45,27.09c0,0,3.27,1.63,11.45-9.82,0,0,11.46,6.54,9.82-9.82,0,0,11.45-1.64,11.45-8.18S104.37,210.72,89.65,181.27ZM30.92,117.45C-1.64,106,11.11,151.81,11.11,151.81c-22.91,16.37-3.28,40.91-3.28,40.91C-8.53,215.63,16,232,16,232c-9.81,50.73,22.24,42.54,22.24,42.54l23.58-33.42V138.72ZM228.73,241.81c0,6.54,11.46,8.18,11.46,8.18-1.64,16.36,9.81,9.82,9.81,9.82,8.19,11.45,11.46,9.82,11.46,9.82,32.73,3.27,65.45-27.09,65.45-27.09V138.72S289.28,115.81,266.37,125s0,15.4,0,15.4,14.72,3.27,32.72,13.09,6.55,27.82,6.55,27.82C290.91,210.72,228.73,235.26,228.73,241.81ZM333.46,138.72V241.11L357,274.53s32.06,8.19,22.24-42.54c0,0,24.55-16.36,8.18-39.27,0,0,19.64-24.54-3.27-40.91,0,0,12.74-45.81-19.81-34.36ZM199.28,274.53c21.27-8.18,52.36-45.81,52.36-45.81s40.91-55.64,19.64-88.36-67.09,4.91-67.09,4.91l-3.27,2.54L196,145.27s-45.82-37.64-67.09-4.91,19.63,88.36,19.63,88.36,31.09,37.63,52.37,45.81"/></g><g id="white"><path id="white-claddagh" class="cls-2" d="M377.22,212.86c-.68,3.09-8,4.11-16.41,2.28s-14.64-5.82-14-8.91,8-4.11,16.4-2.28S377.89,209.77,377.22,212.86Zm-16.05,23.72c-6.07-6.07-12.8-9.17-15-6.94s.87,9,6.94,15,12.81,9.18,15.05,6.95S367.24,242.65,361.17,236.58ZM295,214.3c-.47-.73-10.83,5.14-23.14,13.11s-21.91,15-21.43,15.76,10.84-5.14,23.14-13.11S295.44,215,295,214.3ZM281.48,249c-8.66,5.61-15.26,10.82-14.72,11.65s8-3.06,16.65-8.67,15.25-10.83,14.72-11.65S290.14,243.38,281.48,249Zm-4.83-8.92C267,246.34,259.5,252,260,252.75s8.71-3.76,18.39-10S295.51,230.77,295,230,286.33,233.8,276.65,240.07ZM124.8,233.16c12.63,7.45,23.23,12.88,23.68,12.13s-9.44-7.4-22.07-14.85-23.23-12.89-23.67-12.13S112.17,225.71,124.8,233.16Zm-24.14,11.27c-.5.85,6.3,5.78,15.19,11s16.5,8.81,17,8-6.31-5.78-15.2-11S101.15,243.59,100.66,244.43Zm2.66-10.4c-.45.75,7.25,6.11,17.19,12s18.35,10,18.79,9.25-7.26-6.11-17.19-12S103.76,233.29,103.32,234ZM16.09,174.47c-.15,3.16,6.69,6,15.27,6.43s15.64-1.84,15.79-5-6.69-6-15.27-6.44S16.24,171.31,16.09,174.47Zm3.61,38.39c.68,3.09,8,4.11,16.41,2.28s14.64-5.82,14-8.91-8-4.11-16.41-2.28S19,209.77,19.7,212.86Zm9.11,38.77c2.23,2.23,9-.88,15-6.95s9.18-12.8,6.94-15-9,.87-15,6.94S26.57,249.39,28.81,251.63ZM358.49,136.72C351.81,142.12,348,148.49,350,151s9,.08,15.69-5.32,10.48-11.77,8.49-14.23S365.17,131.33,358.49,136.72ZM365,169.46c-8.57.4-15.41,3.28-15.26,6.44s7.21,5.4,15.79,5,15.41-3.27,15.26-6.43S373.62,169.07,365,169.46ZM181.28,65.09A4.91,4.91,0,1,0,186.19,70,4.91,4.91,0,0,0,181.28,65.09Zm4.91,13.09a4.91,4.91,0,1,0,4.91,4.91A4.91,4.91,0,0,0,186.19,78.18Zm54,15.54a4.91,4.91,0,1,0,4.91-4.91A4.91,4.91,0,0,0,240.19,93.72Zm6.54-12.27a4.91,4.91,0,1,0,4.91-4.91A4.91,4.91,0,0,0,246.73,81.45Zm4.91-13.09a4.91,4.91,0,1,0,4.91-4.91A4.91,4.91,0,0,0,251.64,68.36Zm-3.27-13.09a4.91,4.91,0,1,0,4.91-4.91A4.91,4.91,0,0,0,248.37,55.27Zm-14.73-4.91a4.91,4.91,0,1,0,4.91-4.91A4.91,4.91,0,0,0,233.64,50.36Zm-13.09,6.55A4.91,4.91,0,1,0,225.46,52,4.91,4.91,0,0,0,220.55,56.91ZM212.37,70a4.91,4.91,0,1,0,4.91-4.91A4.91,4.91,0,0,0,212.37,70Zm-4.91,13.09a4.91,4.91,0,1,0,4.91-4.91A4.91,4.91,0,0,0,207.46,83.09ZM22.74,131.4c-2,2.46,1.81,8.83,8.49,14.23s13.7,7.78,15.69,5.32-1.81-8.83-8.49-14.23S24.73,128.94,22.74,131.4ZM153.46,88.81a4.91,4.91,0,1,0,4.91,4.91A4.91,4.91,0,0,0,153.46,88.81Zm-6.54-12.27a4.91,4.91,0,1,0,4.91,4.91A4.91,4.91,0,0,0,146.92,76.54ZM142,63.45a4.91,4.91,0,1,0,4.91,4.91A4.91,4.91,0,0,0,142,63.45Zm3.27-13.09a4.91,4.91,0,1,0,4.91,4.91A4.91,4.91,0,0,0,145.28,50.36ZM160,45.45a4.91,4.91,0,1,0,4.91,4.91A4.91,4.91,0,0,0,160,45.45ZM173.1,52A4.91,4.91,0,1,0,178,56.91,4.91,4.91,0,0,0,173.1,52Z"/></g></svg>