<svg xmlns="http://www.w3.org/2000/svg" viewBox="0 0 262.5 303.74"><defs><style>.cls-1{fill:#010101;}.cls-2{fill:#fff;}</style></defs><g id="black"><path id="black-hard-shoe" class="cls-1" d="M139.5,112c-4-5-43.66-112-43.66-112H222.5s4,110,20,123,20,79,20,83-7,8-7,8l-8,51-42,7-29-7c-8,1-9-10-9-10-10-4-17,14-28,29s-27.5,8.54-27.5,8.54c-2.5,6.53-15.5,8.46-15.5,8.46-55,9-90-7-94-8s-2-26-2-26S-2,244.5,21,235.5s59-43,59-43c0,3,50-65,50-65Zm-6,19s-7-9-13.52,3c0,0,.52,8,3.52,8s-5-7.25-40,9.88c0,0-1.13,4,5.94,1.08S107.5,143,119.5,145c0,0-12.07.85-11,5.43s3.53,4.68,3.53,4.68Z"/></g><g id="white"><path id="white-hard-shoe" class="cls-2" d="M106.23,203.86a1.3,1.3,0,0,0,.58.14c4.62-.12,3.85-2.76,3.44-3.68a1.13,1.13,0,0,0-.4-.49L108,198.46a1.24,1.24,0,0,1,0-2c2.49-1.7,4,.1,4,.1s6.5,6.46-1.91,9.58c-4.87,1.81-6.65.14-7.28-1.59a1.23,1.23,0,0,1,1.7-1.52ZM119.51,188a1.23,1.23,0,0,0-1.7,1.52c.63,1.73,2.41,3.4,7.28,1.59,8.41-3.12,1.91-9.58,1.91-9.58s-1.49-1.8-4-.1a1.24,1.24,0,0,0,0,2l1.87,1.37a1.13,1.13,0,0,1,.4.49c.41.92,1.18,3.56-3.44,3.68a1.3,1.3,0,0,1-.58-.14Zm17-14a1.23,1.23,0,0,0-1.7,1.52c.63,1.73,2.41,3.4,7.28,1.59,8.41-3.12,1.91-9.58,1.91-9.58s-1.49-1.8-4-.1a1.24,1.24,0,0,0,0,2l1.87,1.37a1.13,1.13,0,0,1,.4.49c.41.92,1.18,3.56-3.44,3.68a1.3,1.3,0,0,1-.58-.14Zm18-15a1.23,1.23,0,0,0-1.7,1.52c.63,1.73,2.41,3.4,7.28,1.59,8.41-3.12,1.91-9.58,1.91-9.58s-1.49-1.8-4-.1a1.24,1.24,0,0,0,0,2l1.87,1.37a1.13,1.13,0,0,1,.4.49c.41.92,1.18,3.56-3.44,3.68a1.3,1.3,0,0,1-.58-.14Zm-10-49s-5-5,28-4.66,65,28.66,65,28.66c6-4-3-16-3-16-8-5-17.79-113-17.79-113H105.5C105.5,23,144.5,110,144.5,110ZM160,140.67c11.48-1.34,24.14,7.33,24.14,7.33,35.63,16,42.63,0,42.63,0C190,120,141.5,127,141.5,127ZM211.5,231l-3,32h3L215,231Zm-196,40s104,10,108,16v-4.06s-40-7.87-108-14.4Zm178-38s53-17,55-17v-3.75L191.4,231Zm-73.23-85s-5.77,10-5.77,15l9,2.12s11.33-12.38,14.66-13.25C138.16,151.87,134.05,144,120.27,148ZM112,169.92,107.5,176s6,.55,7,1.77,9-7.85,9-7.85ZM100.5,183s-7,12-7,14v-2l7,2.56,9-12.56S106.5,180,100.5,183Zm-11,17-11,10,5.5,2.25L97.5,202Zm159-41.43c0,6.58,7,9.43,7,9.43l-3-15S248.5,152,248.5,158.57Z"/></g></svg>