<svg xmlns="http://www.w3.org/2000/svg" viewBox="0 0 292.75 345.01"><defs><style>.cls-1{fill:#010101;}.cls-2{fill:#fff;}</style></defs><g id="black"><path id="black-jump" class="cls-1" d="M91.88,19.25s-10-22-33-18c0,0-12-5-15,5,0,0-8,4-8,8,0,0-12,0-8,7,0,0-9,9-3,14,0,0-7,5,0,9,0,0-20,1-14,8,0,0,0,11,6,10,0,0-3,13,7,9,0,0,0,6,6,3,0,0,1,11,6,9,0,0-17,10-18,26s-12,93,13,142c0,0,3,22-15,6s-19,1.66-11.48,5.83,24.48,26.17,34.48,25.17,96,53,96,53,24,14,25-12-10-52-10-52l12-7s8-2,0-7.48,1-6.52,1-6.52,9-6-7-9-9-18-9-18,2-21-3-24c0,0,31,6,45-10s47-29,51-22c0,0,18,5,20-10s12-20,12-20,33-8,16-22c0,0-4-3-16,4,0,0-11,3-17,4s-27,13-23,11c0,0-73,27-75,29s-14.15,2.37-14.15,2.37-7.85-32.37-31.85-27.37c0,0,4-41-9-48s-18-17-18-17-.59-10.34,5-15a21,21,0,0,0,7-12s4-9,1-18Z"/></g><g id="white"><path id="white-jump" class="cls-2" d="M33.88,164.25s-2,25.65,0,27.83,7.61-13.92,7.61-13.92S38.88,167.25,33.88,164.25Z"/></g></svg>