<svg xmlns="http://www.w3.org/2000/svg" viewBox="0 0 272.64 517.75"><defs><style>.cls-1{fill:#010101;}.cls-2{fill:#fff;}</style></defs><g id="black"><path id="black-kick" class="cls-1" d="M40.5,33.17s-4-21,23-28S93,22.67,93,22.67s8,11,5,13c0,0,4.35,20.2.67,23.1S99,65.67,86,67.67v8s30,22,32,33,2,43,2,43,2,27,11,13,31-43,37-45,35-76,35-76,5-20,16-3c0,0,10,8,17,1s9-31,14-36,14-11,22,3c0,0,4,21-8,34l-1,18s-9,13-14,12-14,17-14,17l-21,39v7s-32.56,25.05-32.28,33c0,0-15.72,17-19.72,36s-41,56-48,55c0,0,1,86-4,100s-1,104-1,104l-20,1s-3,37,5,37c0,0,5,5,5,10s-2,6-8,6-21,2-24-14-1-21-5-20-1-26,3-25c0,0-4-93,10-100s-18-93-18-93-27-43-22-79l-5-5s-1,74,20,88c0,0,7,13-5,15s-16-2.73-15-15.87c0,0-25-57.13-23-77.13H0s8-43,4-51,0-34,7-39,39-29,39-29v-12S40,47.67,40.5,33.17Z"/></g><g id="white"><path id="white-kick" class="cls-2" d="M255.23,22.56c4,1.63,6.7,4.12,6.11,5.54s-4.28,1.26-8.24-.38-6.7-4.13-6.11-5.55S251.27,20.92,255.23,22.56ZM73.52,504.94c.44,1.39,4,1.48,8,.22s6.83-3.42,6.39-4.81-4-1.48-8-.21S73.08,503.56,73.52,504.94Z"/></g></svg>