<svg xmlns="http://www.w3.org/2000/svg" viewBox="0 0 189.69 399.41"><defs><style>.cls-1{fill:#010101;}.cls-2{fill:#fff;}</style></defs><g id="black"><path id="black-male-dancer" class="cls-1" d="M128.36,180.18c-5.77-1.92,22.55-9.11,22.55-9.11h0a6.37,6.37,0,0,0,6.23-5c1.72-8,5.69-23.73,12.1-33.76,8.88-13.88-3.88-27.11-5.88-30.11s-30-33-35-35-25-8-25-8-6-17,.43-19.5,2.57-26.5,2.57-26.5-10-15-21-13-14.5,4.5-17.5,21.5,4,18,4,18,8.26,10.5,1.38,18-8.88,6.5-8.88,6.5-18,1-19,3-38,39-38,39-12.62,9-4.81,21,20.45,40,23.13,41,7.42-1.12,7.42-1.12,10.4,8.78,14.83,6.95-3.81,79.77,25.31,90.47c0,0,6.83,2.3,10.47,0S65.82,368,65.82,368s-2.46,6.18,7.54,6.18c0,0,10.63,14,12.82,19.5s19.16,9.5,17.17,0-12-21.5-12-21.5,5,3.66,7.5-2.17c2.37-5.51,2.49-40.74,7.59-48.74a7.85,7.85,0,0,0,1.12-3.5c.87-9.77,4.33-46,7.79-48.59,4-3,3-11,3-15,0,0,27-9,42-24,0,0,2-7,24-13,0,0,12-5.25,0-8.62a21.1,21.1,0,0,0-18,2.62,26.15,26.15,0,0,1-15-1l.47-.62a3.53,3.53,0,0,0-1.24-5.27l-5.75-2.89a4.18,4.18,0,0,0-5.4,1.5l-2.08,3.28-.2-.05a4.89,4.89,0,0,0-5.55,2.55l-.25.5s-3,1-2-4C129.36,205.18,131.36,181.18,128.36,180.18Z"/></g><g id="white"><path id="white-male-dancer" class="cls-2" d="M52.44,128v27.71s-1.58,3-10.58,0-19-25-19-33,22-16,22-16C47.36,107.18,52.44,128,52.44,128Zm72.92.21,1,31c20,4,20-18,24-31s-20-24-20-24C126.36,104.18,125.36,128.18,125.36,128.18Z"/></g></svg>