<svg xmlns="http://www.w3.org/2000/svg" viewBox="0 0 209.06 216"><defs><style>.cls-1{fill:#010101;}.cls-2{fill:#fff;}</style></defs><g id="black"><path id="black-shamrock" class="cls-1" d="M16.92,87.12S-1-3.06,76.46,47.32c0,0,25,17.88,29,47.88s-58,51-58,51S-28.58,162,16.92,87.12ZM151.39,188.5s91.15-12.07,18.52-69.19c0,0-25-17.87-54.65-12s-29.62,71.32-29.62,71.32S95.1,255.69,151.39,188.5ZM163.67,28.21S108.88-45.62,94.19,45.6c0,0-3.51,30.5,16,53.61S187,90.48,187,90.48,249.74,44.8,163.67,28.21ZM0,174.38l22.47,17s79.71-36.7,124-126.86l-20-14.34S81.38,175.31,0,174.38Z"/></g><g id="white"><path id="white-shamrock" class="cls-2" d="M44.45,92.7c.11-.92,9.4-.55,20.76.82s20.46,3.24,20.35,4.17-9.41.55-20.76-.82S44.34,93.63,44.45,92.7Zm84.89,51.54c-6.2-9.42-11.85-16.64-12.61-16.14s3.64,8.55,9.84,18,11.85,16.64,12.61,16.14S135.55,153.66,129.34,144.24Zm6.89-75.91C143.31,59,148.43,51,147.68,50.47S140.57,57,133.49,66.25,121.28,83.54,122,84.12,129.15,77.63,136.23,68.33Z"/></g></svg>