<svg xmlns="http://www.w3.org/2000/svg" viewBox="0 0 199.85 358.2"><defs><style>.cls-1{fill:#010101;}.cls-2{fill:#fff;}</style></defs><g id="black"><path id="black-soft-shoe" class="cls-1" d="M.75,323s-6,33,16,35,39-12,39-12,30.87-37.78,34-43c3-5,10-8,11-38s7-55,19-65,31-33,57-45,23-47,23-47-8-30-21-37,0-71,0-71H69.28S41.75,87,43.75,115c0,0,2,10-7,6-7.19-3.19-23.29,12.73-29.5,19.29a14.48,14.48,0,0,0-3.57,6.62C1.24,157.28-2.46,184.62,26.75,183c0,0-5,33,2,37s-2,29-2,29S3.75,299,.75,323Z"/></g><g id="white"><path id="white-soft-shoe" class="cls-2" d="M172.7,4.5s-1.56,34.92-4.95,48.5c-3,12-6,14-6,14-45,26-109.5,44.5-109.5,44.5-7.33-23.21,20.66-102.79,22-107ZM136.75,105l24-31c-17,14-78.81,37.5-78.81,37.5Zm-75,13S36.3,122.15,51,134.57,85.75,168,105.75,153a187.55,187.55,0,0,0,33-32s8.52-16-12.74-9.5S61.75,118,61.75,118Zm-23,22s-6,20-2,28H48.34l5.41-6S37.75,142,38.75,140Zm27,66,0-20.29L51,174.72C24.3,171.44,42.75,197,42.75,197,55.75,207,65.75,206,65.75,206ZM46.44,225.77S28.75,217,38.75,234s21,16,21,16,18-4.17,3.42-13.24C50.75,229,46.44,225.77,46.44,225.77ZM35.37,276s6.88,22.15,18.38,11.35c0,0,3-7.3-12-18.3S28,260.91,35.37,276ZM19.75,297s-9,4-4,10,6,20,17,17S19.75,297,19.75,297Zm52-111v19.88s8.38.3,10.19-8.29S71.75,186,71.75,186Zm-38-57.54s-16,1.54-24,15.71,0,19.83,0,19.83c13-4,24-28,24-28C36.75,131,33.75,128.46,33.75,128.46ZM24.93,179.1s6.85-21.7,3.34-20.9-17.4,9.07-17.46,10.44S13.12,180.2,24.93,179.1Z"/></g></svg>