<svg xmlns="http://www.w3.org/2000/svg" viewBox="0 0 258.11 453.49"><defs><style>.cls-1{fill:#010101;}.cls-2{fill:#fff;}</style></defs><g id="black"><path id="black-trick" class="cls-1" d="M98.78,31.26s-9,10-6,27c0,0-8,2-2.5,11.5s-1.5,12.5,11.5,11.5,6,25,6,25-45,3-31,119c0,0,1,11-8,11s-48.32,33-48.32,33-8.68,4,.32,15,8,22,2,23-44.17,19.86-6.09,52.43,64.09,51.57,64.09,51.57,16,23,23,23,26,27,31,17-17-26.26-17-26.26-1-20.74,1-20.74,7,17,23,9,110-131.52,110-131.52,15.46-16.48-1.75-12.48c0,0-17.2,17-27.2,15s-26-5-16,13c0,0,3,10-8,15,0,0-39,31-39,34,0,0-10,12-9-7s-4-22,7-26,38.63-10,26.31-24-42.31-49-38.31-81c0,0-1-60.36,9.51-73.18s-15.51-33.82-15.51-33.82-6-22,5-22,15-6,15-6,14,0,12-11,13-12,13-12,13,2,9-12,18-30-15-24c0,0-17.71-15-24.36-9,0,0-13.5-10.83-20.07-1.41,0,0-12.57-5.59-17.57,12.41,0,0-16-2-16,10Z"/></g><g id="white"><path id="white-trick" class="cls-2" d="M56.07,330.92a11.91,11.91,0,0,1-5.47,3.27c-3.48,1-7.15,3.08,2.18,7.07,11,4.73,25.17,33.06,30.66,44.86a12.85,12.85,0,0,0,8.34,7c7.63,2.05,20.26,4.3,23.8-1.85,4.26-7.37-7.74-37.6-12.2-48.25a12.86,12.86,0,0,1-.74-7.53c1.34-6.6,3-19.31-4.51-16.79a12.1,12.1,0,0,1-3.53.6C87.59,319.46,65.53,320.81,56.07,330.92Z"/></g></svg>